inDegrees=yes
name=ik_lifting_orientations
DataType=double
version=3
OpenSimVersion=4.5-2024-01-10-34fd6af
endheader
time	pelvis_tilt	pelvis_list	pelvis_rotation	pelvis_tx	pelvis_ty	pelvis_tz	hip_flexion_r	hip_adduction_r	hip_rotation_r	knee_angle_r	knee_angle_r_beta	ankle_angle_r	subtalar_angle_r	mtp_angle_r	hip_flexion_l	hip_adduction_l	hip_rotation_l	knee_angle_l	knee_angle_l_beta	ankle_angle_l	subtalar_angle_l	mtp_angle_l	lumbar_extension	lumbar_bending	lumbar_rotation	arm_flex_r	arm_add_r	arm_rot_r	elbow_flex_r	pro_sup_r	wrist_flex_r	wrist_dev_r	arm_flex_l	arm_add_l	arm_rot_l	elbow_flex_l	pro_sup_l	wrist_flex_l	wrist_dev_l
0.02	-0.0006822193739907397	-0.0003866693553623991	-98.81349555483584	0	0.9399999998679526	0	30.56280601828088	-11.09775742645967	0	62.44008901228093	1.089785138502636	-5.837724296554667	0	0	30.56280601828088	-11.09775742645967	0	62.44008901228093	1.089785138502636	-5.837724296554667	0	0	-0.001516707501260667	-2.224380791677285e-05	0.0003272446065677931	-0.2329531705857026	-0.0547069784597773	-0.003719302531448811	0.4903511628736104	1.757788450695395	0	0	0	-5.001488953689919	0	90.11561819783516	1.757788450695395	0	0
0.03	-0.09660134015958596	0.8495294643397531	-98.8622061417672	0	0.9399999998679526	0	30.56698461060699	-11.09670193862113	0	62.43954744300992	1.08977568633573	-5.83667683255437	0	0	30.56698461060699	-11.09670193862113	0	62.43954744300992	1.08977568633573	-5.83667683255437	0	0	0.8277354436917427	0.2295518193269483	0.04984328254787476	-0.2327958174915247	-0.05528363495037059	-0.0065783411564273	0.4781010470641852	1.757445475002614	0	0	0	-5.002942091725729	0	90.1155956334967	1.757445475002614	0	0
0.04	-0.09782877420380304	0.846662887918742	-98.8656523175141	0	0.9399999998679526	0	30.57265008456954	-11.09524940220289	0	62.43882343263493	1.089763049970867	-5.835231125980108	0	0	30.57265008456954	-11.09524940220289	0	62.43882343263493	1.089763049970867	-5.835231125980108	0	0	0.8160437626045095	0.2263280635301486	0.05310561899718597	-1.165362705609795	-0.2542263637765805	-0.6602464581690761	1.412783077279957	1.756983245050661	0	0	0	-5.004892603971089	0	90.11556522374731	1.756983245050661	0	0
0.05	-1.094845089834343	0.851065545968206	-98.29338212895418	0	0.9399999998679526	0	30.57646809598526	-11.09427735817266	0	62.43833265606178	1.089754484303774	-5.834265221825628	0	0	30.57646809598526	-11.09427735817266	0	62.43833265606178	1.089754484303774	-5.834265221825628	0	0	0.6796008796579426	1.210892881077859	-0.5141728689992491	-1.135016453321618	-0.8268358071831469	-0.6339883085354385	1.490978515516065	1.756670929137314	0	0	0	-5.006212768831571	0	90.11554467663268	1.756670929137314	0	0
0.06	-1.100496874740162	0.8593532927670708	-98.29932767466227	0	0.9399999998679526	0	30.58052136516394	-11.09324486446395	0	62.43781228571726	1.089745402127933	-5.833239360478081	0	0	30.58052136516394	-11.09324486446395	0	62.43781228571726	1.089745402127933	-5.833239360478081	0	0	1.435065505610315	1.432212982675307	-0.2622657032871997	-1.874434802962251	-1.039876243601194	-0.8998480039007952	1.475516490786566	1.756339516392968	0	0	0	-5.007613174998751	0	90.11552287316377	1.756339516392968	0	0
0.07000000000000001	-1.110230196778943	0.8292305140359812	-98.29449459493229	0	0.9399999998679526	0	30.58479999312689	-11.0921524032137	0	62.4372643200892	1.089735838323535	-5.832153497880938	0	0	30.58479999312689	-11.0921524032137	0	62.4372643200892	1.089735838323535	-5.832153497880938	0	0	1.390240554705008	1.428555887486854	-0.2705766085958004	-2.933062738635343	-1.784082017811387	-0.9755383376692468	2.663849871619132	1.755990024503198	0	0	0	-5.009088974482182	0	90.11549988031608	1.755990024503198	0	0
0.08	-1.107891212082335	0.8475985864606199	-98.29392921815263	0	0.9399999998679526	0	30.92102657148128	-11.01655640162741	0	62.39355527385763	1.088972971553888	-5.760858928475196	0	0	30.92102657148128	-11.01655640162741	0	62.39355527385763	1.088972971553888	-5.760858928475196	0	0	1.427975535201679	1.4412491737836	-0.2678923105795884	-2.956091628845686	-1.792471259900536	-0.9804127445113298	2.650328547182846	1.727879284010395	0	0	0	-5.128872077089423	0	90.11365041087733	1.727879284010395	0	0
0.09	-1.102492619393358	0.8702473619144006	-98.29324982702998	0	0.9399999998679526	0	30.92468013098255	-11.01566284715607	0	62.39308575396615	1.088964776885878	-5.759986018000011	0	0	30.92468013098255	-11.01566284715607	0	62.39308575396615	1.088964776885878	-5.759986018000011	0	0	1.464138224378996	1.438888497910063	-0.2675975939586925	-3.017547685088652	-1.712205576840605	-1.034617840009732	1.599588731095346	1.727578553171446	0	0	0	-5.130145528254086	0	90.11363062569816	1.727578553171446	0	0
0.1	-1.103004943370016	0.8463263402371793	-98.29531629201868	0	0.9399999998679526	0	30.92844423871411	-11.0147448788554	0	62.39260091730395	1.088956314889788	-5.75908987815307	0	0	30.92844423871411	-11.0147448788554	0	62.39260091730395	1.088956314889788	-5.75908987815307	0	0	1.422410438717381	1.436649260866706	-0.2642793152407589	-3.292734787866097	-0.520067548710175	-0.4737801284894895	1.907214902324865	1.727268399399317	0	5.38806921148701e-36	0	-5.131459785319442	0	90.11361022054456	1.727268399399317	0	5.38806921148701e-36
0.11	-1.099314445662783	0.8512330275050325	-98.29513838864636	0	0.9399999998679526	0	30.93246078406962	-11.01376581020504	0	62.39208359294083	1.088947285876351	-5.758134326740072	0	0	30.93246078406962	-11.01376581020504	0	62.39208359294083	1.088947285876351	-5.758134326740072	0	0	1.433019001341178	1.432391073224253	-0.2689486981502123	-3.444065370707838	0.6040977345969017	-0.5236933534494749	2.008413270263751	1.726937429066189	0	0	0	-5.132862258009349	0	90.11358844585806	1.726937429066189	0	0
0.12	-0.9912800303125961	0.009047095097454726	-98.25625623992958	0	0.9399999998679526	0	30.93640743669945	-11.01280910673219	0	62.39157295337063	1.08893837353456	-5.757201817156065	0	0	30.93640743669945	-11.01280910673219	0	62.39157295337063	1.08893837353456	-5.757201817156065	0	0	0.6274783881300746	1.205111882381365	-0.3065694328781439	-3.590506489954781	1.144082427440193	-0.5426618338714935	2.226798225716148	1.726611556182162	0	0	0	-5.134244985328207	0	90.1135670064611	1.726611556182162	0	0
0.13	-0.9909816911053296	0.01235143304147318	-98.25953507982133	0	0.9399999998679526	0	30.94045984494525	-11.01182294924811	0	62.39105076382963	1.08892925960775	-5.756239989436872	0	0	30.94045984494525	-11.01182294924811	0	62.39105076382963	1.08892925960775	-5.756239989436872	0	0	1.343709035736657	1.447400615643013	-0.1382274053181148	-4.394440991684101	1.46966647060697	-0.7576985094515932	2.390025588018046	1.72627751182116	0	0	0	-5.135660735834871	0	90.11354502951917	1.72627751182116	0	0
0.14	-0.9891208439555104	0.007861611427769673	-98.25806617635541	0	0.9399999998679526	0	30.94605302147772	-11.01046118423742	0	62.39033078941753	1.088916693683729	-5.754911939779539	0	0	30.94605302147772	-11.01046118423742	0	62.39033078941753	1.088916693683729	-5.754911939779539	0	0	2.098633117477915	1.671289971341561	0.1047670078478096	-5.288640967462171	2.373697112619817	-1.08094014016482	2.499322664793324	1.725816625703853	0	0	0	-5.137613525590276	0	90.11351470761367	1.725816625703853	0	0
